<?xml version="1.0" standalone="no"?>
<!DOCTYPE svg PUBLIC "-//W3C//DTD SVG 20010904//EN"
 "http://www.w3.org/TR/2001/REC-SVG-20010904/DTD/svg10.dtd">
<svg version="1.0" xmlns="http://www.w3.org/2000/svg"
 width="640.000000pt" height="640.000000pt" viewBox="0 0 640.000000 640.000000"
 preserveAspectRatio="xMidYMid meet">
<metadata>
Created by potrace 1.11, written by Peter Selinger 2001-2013
</metadata>
<g transform="translate(0.000000,640.000000) scale(0.100000,-0.100000)"
fill="#000000" stroke="none">
<path d="M2657 6029 c-155 -36 -291 -174 -326 -330 -10 -45 -9 -194 1 -205 13
-13 79 -21 139 -18 237 11 422 211 414 449 -3 88 -9 101 -53 109 -50 8 -129 6
-175 -5z"/>
<path d="M1577 5659 c-97 -80 -136 -217 -97 -346 14 -46 71 -126 112 -156 26
-20 27 -20 56 -1 41 27 84 81 107 134 30 67 27 199 -4 263 -25 50 -104 137
-125 137 -6 0 -29 -14 -49 -31z"/>
<path d="M2777 5463 c-2 -1 -32 -5 -67 -8 -36 -4 -71 -8 -78 -10 -7 -3 -34 -7
-60 -10 -65 -8 -250 -58 -356 -95 -191 -68 -399 -180 -575 -313 -120 -89 -134
-102 -251 -217 -414 -411 -652 -979 -654 -1560 -1 -142 9 -314 19 -330 2 -3 6
-21 9 -40 53 -338 244 -697 513 -964 276 -274 615 -446 1028 -520 104 -19 329
-25 445 -12 202 22 438 100 605 200 269 161 510 439 615 710 18 44 36 90 40
101 8 18 41 145 54 206 26 124 28 377 3 496 -69 329 -244 595 -512 775 -218
147 -435 210 -700 203 -142 -4 -151 -5 -244 -29 -272 -70 -492 -246 -602 -481
-45 -98 -46 -100 -70 -195 -26 -106 -36 -291 -20 -386 23 -134 117 -287 225
-368 122 -91 247 -128 406 -120 58 3 114 4 125 3 89 -9 236 -1 285 15 273 91
445 330 434 601 -5 104 -21 164 -48 170 -88 20 -120 23 -191 20 -44 -2 -109
-13 -145 -24 -36 -12 -66 -21 -67 -21 -1 0 -16 27 -34 60 -40 75 -121 165
-194 215 l-56 39 -47 -24 c-68 -36 -171 -144 -211 -220 -19 -36 -35 -66 -35
-67 -1 -1 -31 7 -66 18 -41 13 -99 22 -158 24 -51 1 -95 5 -98 8 -3 3 9 46 25
97 130 386 490 595 941 546 158 -18 363 -97 496 -191 237 -169 400 -433 444
-720 13 -81 15 -264 5 -327 -3 -18 -10 -60 -16 -93 -45 -263 -197 -541 -404
-737 -133 -126 -348 -255 -514 -307 -292 -94 -634 -86 -956 21 -102 34 -279
116 -343 159 -24 16 -45 29 -48 29 -13 0 -177 132 -248 200 -149 142 -268 306
-360 495 -31 63 -56 119 -56 125 0 6 -7 24 -15 41 -19 36 -81 275 -89 344 -3
28 -9 66 -12 85 -7 48 -8 349 -1 386 4 16 9 53 12 83 4 30 9 63 11 75 2 12 7
37 10 56 42 243 162 539 311 770 243 374 568 649 991 838 76 34 267 101 311
108 14 3 44 10 66 16 41 10 55 13 115 24 19 4 44 8 55 10 11 2 49 7 85 10 91
9 90 16 -3 12 -43 -1 -79 -4 -80 -5z m-95 -2041 c39 -26 89 -87 128 -155 l33
-59 -53 -46 c-29 -26 -73 -73 -96 -104 l-43 -58 -30 44 c-37 53 -96 116 -133
140 l-27 18 30 60 c29 57 134 178 154 178 6 0 22 -8 37 -18z m-413 -248 l58
-16 0 -106 c-1 -163 45 -293 143 -404 l40 -46 -48 5 c-148 13 -295 105 -368
229 -56 95 -82 211 -69 305 6 42 10 48 33 51 51 7 153 -1 211 -18z m1000 11
c8 -4 11 -37 10 -93 -5 -260 -177 -451 -438 -487 -49 -7 -49 -7 7 55 12 14 22
28 22 32 0 3 6 13 13 20 12 12 49 86 68 137 18 46 24 97 24 198 0 117 -3 113
100 136 61 14 174 15 194 2z m-780 -152 c23 -25 55 -74 72 -108 29 -60 30 -66
23 -144 -8 -94 -13 -94 -71 -3 -35 54 -59 112 -69 166 -10 50 -11 136 -3 136
4 0 26 -21 48 -47z m378 -25 c-10 -111 -48 -208 -114 -286 l-28 -34 -1 44 c-1
24 -5 58 -8 77 -8 42 7 91 51 159 32 51 87 112 100 112 3 0 3 -33 0 -72z"/>
<path d="M2303 5260 c-18 -4 -33 -6 -33 -5 0 2 -26 -9 -58 -25 -71 -34 -146
-113 -133 -139 28 -52 127 -122 192 -137 127 -29 265 22 338 125 l21 29 -41
46 c-46 52 -114 91 -175 101 -21 3 -48 8 -59 9 -11 2 -35 0 -52 -4z"/>
<path d="M3257 5054 c-1 -1 -42 -4 -92 -8 -49 -3 -117 -10 -150 -16 -33 -6
-76 -13 -95 -16 -79 -13 -280 -79 -400 -132 -146 -64 -337 -177 -424 -252
-238 -202 -370 -374 -479 -623 -38 -88 -87 -238 -102 -318 -2 -11 -6 -28 -9
-37 -4 -15 -11 -63 -21 -150 -3 -27 28 -48 42 -29 5 6 20 39 33 72 75 192 185
361 330 505 216 216 435 329 776 401 94 20 137 23 314 23 188 0 215 -3 324
-28 312 -73 553 -206 779 -430 274 -272 460 -660 513 -1066 3 -30 8 -66 11
-80 2 -14 5 -88 7 -165 4 -189 -9 -314 -54 -490 -55 -217 -149 -428 -335 -750
-272 -469 -340 -610 -394 -815 -26 -98 -47 -216 -46 -264 0 -34 24 -28 40 10
27 65 123 201 176 248 60 54 175 113 239 124 56 9 230 8 330 -1 145 -14 483
-18 525 -6 111 31 182 85 225 173 37 75 43 131 24 247 -7 46 -16 120 -20 164
-6 87 -13 71 71 187 45 61 42 127 -8 202 l-37 56 34 14 c40 17 83 70 89 111 5
37 -8 94 -32 149 -46 103 -31 146 75 217 85 58 129 105 143 156 29 103 11 141
-139 291 -116 117 -232 253 -322 378 -40 55 -58 111 -51 165 13 100 4 246 -22
379 -3 14 -8 38 -11 53 -40 226 -177 517 -328 702 -125 153 -308 309 -456 389
-19 10 -55 29 -79 43 -159 88 -413 167 -641 198 -86 12 -345 26 -353 19z"/>
<path d="M1067 5011 c-49 -54 -66 -91 -73 -155 -8 -75 16 -146 70 -202 24 -24
48 -44 54 -44 21 0 81 61 101 103 48 99 33 208 -40 290 -22 26 -49 47 -59 47
-10 0 -34 -18 -53 -39z"/>
<path d="M1424 4539 c-38 -11 -124 -85 -124 -106 0 -27 76 -90 129 -108 55
-18 118 -15 176 9 31 13 105 81 105 97 0 20 -59 74 -105 95 -53 25 -123 30
-181 13z"/>
</g>
</svg>
