<?xml version="1.0" standalone="no"?>
<!DOCTYPE svg PUBLIC "-//W3C//DTD SVG 20010904//EN"
 "http://www.w3.org/TR/2001/REC-SVG-20010904/DTD/svg10.dtd">
<svg version="1.0" xmlns="http://www.w3.org/2000/svg"
 width="568.000000pt" height="568.000000pt" viewBox="0 0 568.000000 568.000000"
 preserveAspectRatio="xMidYMid meet">
<metadata>
Created by potrace 1.11, written by Peter Selinger 2001-2013
</metadata>
<g transform="translate(0.000000,568.000000) scale(0.100000,-0.100000)"
fill="#000000" stroke="none">
<path d="M2299 5669 c-151 -35 -284 -162 -323 -309 -14 -53 -17 -213 -4 -226
14 -13 82 -22 142 -18 237 13 423 218 411 451 -4 73 -5 77 -14 92 -11 17 -154
24 -212 10z"/>
<path d="M1194 5275 c-41 -43 -58 -69 -72 -117 -42 -135 -1 -274 103 -354 33
-25 36 -26 60 -10 39 25 86 82 108 128 21 45 29 173 15 232 -14 58 -112 176
-146 176 -8 0 -38 -25 -68 -55z"/>
<path d="M2335 5093 c-55 -7 -134 -20 -175 -28 -41 -9 -84 -18 -94 -20 -54
-12 -232 -72 -316 -107 -192 -79 -420 -220 -595 -368 -78 -65 -251 -250 -318
-338 -214 -284 -347 -575 -415 -907 -39 -187 -46 -259 -47 -450 0 -168 7 -259
30 -365 3 -14 7 -35 9 -46 22 -117 87 -300 152 -427 315 -620 958 -1018 1649
-1021 140 0 239 12 400 49 107 25 314 116 428 189 251 161 477 435 576 701 13
33 27 69 31 80 12 27 48 162 54 205 27 168 28 376 2 499 -102 493 -461 854
-950 958 -85 18 -322 24 -403 11 -400 -67 -671 -309 -770 -687 -21 -81 -26
-120 -27 -246 -1 -129 2 -160 21 -220 60 -189 210 -339 398 -397 68 -21 90
-23 310 -21 33 0 105 0 160 0 117 0 217 28 313 89 211 134 320 403 262 646
-11 44 -15 49 -53 60 -91 26 -265 13 -371 -28 -10 -4 -24 14 -47 56 -18 34
-53 85 -79 113 -52 59 -155 137 -179 137 -26 0 -146 -96 -191 -153 -23 -29
-53 -74 -67 -102 -14 -27 -26 -51 -27 -52 -1 -1 -31 7 -66 19 -45 14 -95 21
-162 22 -54 0 -98 4 -98 7 0 19 46 151 69 199 86 180 242 323 431 393 214 81
483 79 710 -4 433 -160 723 -582 712 -1039 -2 -120 -12 -195 -41 -312 -114
-460 -457 -823 -917 -972 -58 -19 -68 -21 -184 -42 -92 -17 -283 -23 -393 -11
-100 10 -257 44 -361 78 -125 40 -332 146 -446 227 -85 60 -274 236 -343 320
-107 128 -236 363 -295 537 -40 118 -62 219 -87 395 -8 57 -9 332 -2 385 4 22
11 78 17 125 17 124 72 331 125 466 182 461 525 864 945 1108 96 56 371 181
420 191 3 1 32 10 65 20 33 10 65 20 70 21 110 25 181 39 280 54 112 17 115
18 50 17 -38 -1 -115 -7 -170 -14z m27 -2068 c31 -31 70 -83 88 -116 l32 -61
-53 -46 c-29 -26 -72 -73 -95 -104 l-43 -58 -32 46 c-34 50 -127 144 -142 144
-17 0 2 59 36 113 37 57 119 137 140 137 8 0 39 -25 69 -55z m-450 -213 l53
-17 1 -116 c1 -67 6 -124 13 -137 6 -12 10 -22 7 -22 -9 0 41 -115 68 -158 15
-23 42 -60 62 -81 l34 -39 -42 4 c-246 24 -431 213 -443 454 -5 109 0 128 39
132 61 7 156 -2 208 -20z m995 14 c15 -14 18 -108 7 -173 -36 -217 -210 -381
-431 -408 -35 -4 -41 -2 -37 10 4 8 10 15 14 15 21 0 113 164 136 240 4 14 10
32 12 40 3 8 6 66 7 129 2 130 -4 122 105 145 55 13 176 13 187 2z m-778 -153
c23 -25 55 -74 72 -109 30 -60 31 -66 24 -144 -6 -71 -9 -79 -23 -68 -42 35
-104 156 -118 232 -10 49 -11 136 -3 136 4 0 26 -21 48 -47z m371 -88 c-14
-69 -59 -167 -100 -213 -31 -36 -40 -40 -35 -14 1 9 -2 43 -7 74 -9 54 -8 62
20 121 30 65 45 87 97 141 l30 31 3 -40 c2 -22 -2 -67 -8 -100z"/>
<path d="M1943 4900 c-18 -4 -33 -6 -33 -5 0 2 -26 -9 -58 -25 -35 -17 -76
-47 -101 -76 -40 -46 -41 -48 -25 -72 23 -36 62 -70 109 -97 138 -79 321 -37
415 95 l20 28 -41 46 c-46 52 -114 91 -175 101 -21 3 -48 8 -59 9 -11 2 -35 0
-52 -4z"/>
<path d="M2908 4695 c-2 -1 -46 -5 -98 -8 -244 -16 -475 -80 -715 -197 -376
-184 -637 -433 -802 -765 -74 -148 -142 -367 -159 -510 -3 -33 -8 -68 -10 -77
-4 -23 30 -43 43 -25 5 6 20 39 33 72 126 323 361 591 660 752 216 117 491
182 760 181 254 -1 461 -49 682 -158 499 -247 838 -740 933 -1355 25 -167 25
-474 0 -595 -3 -14 -10 -49 -16 -79 -29 -149 -101 -349 -191 -526 -40 -80
-172 -319 -223 -403 -174 -289 -291 -541 -339 -730 -22 -86 -42 -201 -41 -241
0 -38 21 -35 40 6 34 73 126 202 178 249 60 54 167 108 247 123 54 10 301 7
350 -5 14 -3 122 -8 240 -10 199 -4 220 -3 279 16 93 31 136 61 180 125 54 78
67 159 45 282 -7 43 -16 116 -19 163 -5 80 -4 88 19 120 77 106 80 111 80 158
1 49 -21 104 -56 141 -11 12 -18 24 -17 25 2 2 22 13 45 25 22 13 49 37 59 54
25 42 23 123 -5 179 -60 119 -46 167 75 247 75 51 105 82 126 129 44 101 18
163 -124 304 -107 105 -221 237 -314 364 -53 72 -76 134 -66 182 7 39 7 168 0
237 -23 206 -78 404 -162 582 -255 542 -817 907 -1475 959 -76 6 -239 12 -242
9z"/>
<path d="M705 4647 c-69 -68 -91 -167 -59 -261 16 -48 89 -136 112 -136 21 0
77 58 100 104 29 58 36 142 16 200 -17 50 -87 136 -111 136 -9 0 -35 -19 -58
-43z"/>
<path d="M1063 4179 c-17 -5 -53 -29 -80 -53 -47 -44 -48 -45 -33 -72 23 -42
102 -91 158 -99 83 -11 176 27 226 92 17 23 17 25 -10 60 -51 68 -166 99 -261
72z"/>
</g>
</svg>
